<svg width="33" height="32" viewBox="0 0 33 32" fill="none" xmlns="http://www.w3.org/2000/svg">
<g id="Icon">
<g id="Vector">
<path d="M11.7263 2.77596H10.7498C8.90881 2.77596 7.41642 4.26834 7.41642 6.10929V16.6089L10.9852 4.27016C11.1457 3.71529 11.4002 3.21312 11.7263 2.77596Z" fill="#212121"/>
<path d="M16.3537 2.35386C14.5841 1.84643 12.7381 2.86964 12.2307 4.63928L7.08547 22.5828C6.57804 24.3525 7.60125 26.1984 9.37089 26.7058L19.6243 29.646C21.394 30.1534 23.2399 29.1302 23.7473 27.3605L28.8926 9.41699C29.4 7.64736 28.3768 5.80143 26.6072 5.294L16.3537 2.35386ZM17.0371 6.01947L24.0863 8.04081C24.9711 8.29453 25.4828 9.21749 25.229 10.1023C24.9753 10.9871 24.0524 11.4987 23.1675 11.245L16.1183 9.22367C15.2335 8.96996 14.7219 8.04699 14.9756 7.16218C15.2293 6.27736 16.1523 5.76575 17.0371 6.01947Z" fill="#212121"/>
<path d="M6.234 4.88013L5.97684 4.94663C4.19452 5.40757 3.12334 7.22609 3.58428 9.0084L6.08431 18.6753V5.91983C6.08431 5.58552 6.13477 5.23363 6.234 4.88013Z" fill="#212121"/>
</g>
</g>
</svg>
