<svg width="33" height="32" viewBox="0 0 33 32" fill="none" xmlns="http://www.w3.org/2000/svg">
<g id="Icon">
<path id="Shape" d="M4.75 7C4.75 5.34314 6.09315 4 7.75 4H20.4167C22.0735 4 23.4167 5.34315 23.4167 7V18.6667H28.75V23.6667C28.75 26.0599 26.8099 28 24.4167 28H9.08333C6.6901 28 4.75 26.0599 4.75 23.6667V7ZM23.4167 26H24.4167C25.7053 26 26.75 24.9553 26.75 23.6667V20.6667H23.4167V26ZM7.75 6C7.19771 6 6.75 6.44772 6.75 7V23.6667C6.75 24.9553 7.79467 26 9.08333 26H21.4167V7C21.4167 6.44772 20.969 6 20.4167 6H7.75ZM10.4167 9.33333C9.86438 9.33333 9.41667 9.78105 9.41667 10.3333C9.41667 10.8856 9.86438 11.3333 10.4167 11.3333H17.75C18.3023 11.3333 18.75 10.8856 18.75 10.3333C18.75 9.78105 18.3023 9.33333 17.75 9.33333H10.4167ZM9.41667 15.6667C9.41667 15.1144 9.86438 14.6667 10.4167 14.6667H17.75C18.3023 14.6667 18.75 15.1144 18.75 15.6667C18.75 16.219 18.3023 16.6667 17.75 16.6667H10.4167C9.86438 16.6667 9.41667 16.219 9.41667 15.6667ZM10.4167 20C9.86438 20 9.41667 20.4477 9.41667 21C9.41667 21.5523 9.86438 22 10.4167 22H14.4167C14.969 22 15.4167 21.5523 15.4167 21C15.4167 20.4477 14.969 20 14.4167 20H10.4167Z" fill="#6C6E6F"/>
</g>
</svg>
