<svg width="33" height="32" viewBox="0 0 33 32" fill="none" xmlns="http://www.w3.org/2000/svg">
<g id="Scan Camera">
<path id="Shape" d="M3.92847 7.9999C3.92847 5.47517 5.97516 3.42847 8.49989 3.42847H12.3203C12.9515 3.42847 13.4632 3.94014 13.4632 4.57132C13.4632 5.20251 12.9515 5.71418 12.3203 5.71418H8.49989C7.23753 5.71418 6.21418 6.73753 6.21418 7.9999V11.8187C6.21418 12.4499 5.70251 12.9616 5.07132 12.9616C4.44014 12.9616 3.92847 12.4499 3.92847 11.8187V7.9999ZM19.5382 4.57132C19.5382 3.94014 20.0499 3.42847 20.6811 3.42847H24.4999C27.0246 3.42847 29.0713 5.47516 29.0713 7.9999V11.8187C29.0713 12.4499 28.5596 12.9616 27.9285 12.9616C27.2973 12.9616 26.7856 12.4499 26.7856 11.8187V7.9999C26.7856 6.73753 25.7623 5.71418 24.4999 5.71418H20.6811C20.0499 5.71418 19.5382 5.20251 19.5382 4.57132ZM5.07132 19.0382C5.70251 19.0382 6.21418 19.5499 6.21418 20.1811V23.9999C6.21418 25.2623 7.23753 26.2856 8.4999 26.2856H12.3187C12.9499 26.2856 13.4616 26.7973 13.4616 27.4285C13.4616 28.0596 12.9499 28.5713 12.3187 28.5713H8.4999C5.97517 28.5713 3.92847 26.5246 3.92847 23.9999V20.1811C3.92847 19.5499 4.44014 19.0382 5.07132 19.0382ZM27.9285 19.0382C28.5596 19.0382 29.0713 19.5499 29.0713 20.1811V23.9999C29.0713 26.5246 27.0246 28.5713 24.4999 28.5713H20.6811C20.0499 28.5713 19.5382 28.0596 19.5382 27.4285C19.5382 26.7973 20.0499 26.2856 20.6811 26.2856H24.4999C25.7623 26.2856 26.7856 25.2623 26.7856 23.9999V20.1811C26.7856 19.5499 27.2973 19.0382 27.9285 19.0382ZM16.4999 18.2856C17.7623 18.2856 18.7856 17.2623 18.7856 15.9999C18.7856 14.7375 17.7623 13.7142 16.4999 13.7142C15.2375 13.7142 14.2142 14.7375 14.2142 15.9999C14.2142 17.2623 15.2375 18.2856 16.4999 18.2856ZM14.9205 9.14275C14.2712 9.14275 13.6776 9.50961 13.3872 10.0904L12.7182 11.4285H11.9285C10.6661 11.4285 9.64275 12.4518 9.64275 13.7142V19.4285C9.64275 20.6908 10.6661 21.7142 11.9285 21.7142H21.0713C22.3337 21.7142 23.357 20.6908 23.357 19.4285V13.7142C23.357 12.4518 22.3337 11.4285 21.0713 11.4285H20.2816L19.6126 10.0904C19.3222 9.50961 18.7286 9.14275 18.0793 9.14275H14.9205ZM16.4999 12.5713C18.3934 12.5713 19.9285 14.1063 19.9285 15.9999C19.9285 17.8934 18.3934 19.4285 16.4999 19.4285C14.6063 19.4285 13.0713 17.8934 13.0713 15.9999C13.0713 14.1063 14.6063 12.5713 16.4999 12.5713Z" fill="white"/>
</g>
</svg>
